<?xml version="1.0" encoding="utf-8"?><svg xmlns="http://www.w3.org/2000/svg" xmlns:xlink="http://www.w3.org/1999/xlink"><symbol viewBox="0 0 24 24" fill="none" stroke-width="2" stroke-linecap="round" stroke-linejoin="round" class="aafeather aafeather-activity" id="activity_icon" xmlns="http://www.w3.org/2000/svg"><path d="M22 12h-4l-3 9L9 3l-3 9H2"/></symbol><symbol fill="none" stroke-width="2" stroke-linecap="round" stroke-linejoin="round" viewBox="0 0 24 24" id="archive_icon" xmlns="http://www.w3.org/2000/svg"><path d="M21 8v13H3V8M1 3h22v5H1zM10 12h4"/></symbol><symbol viewBox="0 0 11 6" id="arrow_dropdown" xmlns="http://www.w3.org/2000/svg"><defs><style>.accls-1{fill:#9cb1cd}</style></defs><path id="acShape_576_copy_4" data-name="Shape 576 copy 4" class="accls-1" d="M473 30.909a.847.847 0 01-.278.623l-4.557 4.213a.994.994 0 01-1.329 0l-4.557-4.213a.835.835 0 010-1.241.994.994 0 011.334 0l3.892 3.6 3.893-3.6a.992.992 0 011.333 0 .844.844 0 01.269.618z" transform="translate(-462 -30.031)"/></symbol><symbol viewBox="0 0 6 11" id="arrow_left" xmlns="http://www.w3.org/2000/svg"><path d="M5.091 11a.844.844 0 01-.622-.279L.255 6.164a.993.993 0 010-1.329L4.469.278a.835.835 0 011.241 0 .993.993 0 010 1.334l-3.6 3.893 3.6 3.893a.992.992 0 010 1.333.845.845 0 01-.619.269z"/></symbol><symbol viewBox="0 0 6 11" id="arrow_right" xmlns="http://www.w3.org/2000/svg"><path d="M.88 0a.846.846 0 01.62.279l4.21 4.557a.993.993 0 010 1.329L1.5 10.722a.834.834 0 01-1.24 0 .988.988 0 010-1.334l3.59-3.892L.26 1.603A.988.988 0 01.26.27.836.836 0 01.88 0z"/></symbol><symbol fill="none" stroke-width="2" stroke-linecap="round" stroke-linejoin="round" class="affeather affeather-award" viewBox="0 0 24 24" id="award_icon" xmlns="http://www.w3.org/2000/svg"><circle cx="12" cy="8" r="7"/><path d="M8.21 13.89L7 23l5-3 5 3-1.21-9.12"/></symbol><symbol fill="none" stroke-width="2" stroke-linecap="round" stroke-linejoin="round" class="agfeather agfeather-calendar" viewBox="0 0 24 24" id="calendar_icon" xmlns="http://www.w3.org/2000/svg"><rect x="3" y="4" width="18" height="18" rx="2" ry="2"/><path d="M16 2v4M8 2v4M3 10h18"/></symbol><symbol fill="none" stroke-width="2" stroke-linecap="round" stroke-linejoin="round" class="ahfeather ahfeather-camera" viewBox="0 0 24 24" id="camera_icon" xmlns="http://www.w3.org/2000/svg"><path d="M23 19a2 2 0 01-2 2H3a2 2 0 01-2-2V8a2 2 0 012-2h4l2-3h6l2 3h4a2 2 0 012 2z"/><circle cx="12" cy="13" r="4"/></symbol><symbol fill="none" stroke-width="2" stroke-linecap="round" stroke-linejoin="round" class="aifeather aifeather-cast" viewBox="0 0 24 24" id="cast_icon" xmlns="http://www.w3.org/2000/svg"><path d="M2 16.1A5 5 0 015.9 20M2 12.05A9 9 0 019.95 20M2 8V6a2 2 0 012-2h16a2 2 0 012 2v12a2 2 0 01-2 2h-6M2 20h.01"/></symbol><symbol fill="none" stroke-width="2" stroke-linecap="round" stroke-linejoin="round" class="ajfeather ajfeather-pie-chart" viewBox="0 0 24 24" id="chart_icon" xmlns="http://www.w3.org/2000/svg"><path d="M21.21 15.89A10 10 0 118 2.83M22 12A10 10 0 0012 2v10z"/></symbol><symbol viewBox="0 0 12 12" id="close" xmlns="http://www.w3.org/2000/svg"><path d="M.251.251a.9.9 0 011.275 0l10.2 10.2a.901.901 0 01-1.274 1.275l-10.2-10.2A.9.9 0 01.251.251zm0 10.2l10.2-10.2a.901.901 0 011.274 1.275l-10.2 10.2A.902.902 0 01.251 10.45z"/></symbol><symbol stroke-width="2" viewBox="0 0 14 14" id="close_icon" xmlns="http://www.w3.org/2000/svg"><path d="M13 1L1 13M1 1l12 12"/></symbol><symbol fill="none" stroke-width="2" stroke-linecap="round" stroke-linejoin="round" class="amfeather amfeather-codepen" viewBox="0 0 24 24" id="codepen_icon" xmlns="http://www.w3.org/2000/svg"><path d="M12 2l10 6.5v7L12 22 2 15.5v-7L12 2zM12 22v-6.5"/><path d="M22 8.5l-10 7-10-7"/><path d="M2 15.5l10-7 10 7M12 2v6.5"/></symbol><symbol fill="none" stroke-width="2" stroke-linecap="round" stroke-linejoin="round" viewBox="0 0 24 24" id="copy_icon" xmlns="http://www.w3.org/2000/svg"><rect x="9" y="9" width="13" height="13" rx="2" ry="2"/><path d="M5 15H4a2 2 0 01-2-2V4a2 2 0 012-2h9a2 2 0 012 2v1"/></symbol><symbol fill="none" stroke-width="2" stroke-linecap="round" stroke-linejoin="round" class="aofeather aofeather-edit" viewBox="0 0 24 24" id="edit" xmlns="http://www.w3.org/2000/svg"><path d="M11 4H4a2 2 0 00-2 2v14a2 2 0 002 2h14a2 2 0 002-2v-7"/><path d="M18.5 2.5a2.121 2.121 0 013 3L12 15l-4 1 1-4 9.5-9.5z"/></symbol><symbol viewBox="0 0 24 24" fill="none" stroke-width="2" stroke-linecap="round" stroke-linejoin="round" class="apfeather apfeather-edit-2" id="edit_icon" xmlns="http://www.w3.org/2000/svg"><path d="M17 3a2.828 2.828 0 114 4L7.5 20.5 2 22l1.5-5.5L17 3z"/></symbol><symbol fill="none" stroke-width="2" stroke-linecap="round" stroke-linejoin="round" viewBox="0 0 24 24" id="file_icon" xmlns="http://www.w3.org/2000/svg"><path d="M14 2H6a2 2 0 00-2 2v16a2 2 0 002 2h12a2 2 0 002-2V8z"/><path d="M14 2v6h6M16 13H8M16 17H8M10 9H8"/></symbol><symbol fill="none" stroke-width="2" stroke-linecap="round" stroke-linejoin="round" class="arfeather arfeather-grid" viewBox="0 0 24 24" id="grid_icon" xmlns="http://www.w3.org/2000/svg"><path d="M3 3h7v7H3zM14 3h7v7h-7zM14 14h7v7h-7zM3 14h7v7H3z"/></symbol><symbol fill="none" stroke-width="2" stroke-linecap="round" stroke-linejoin="round" class="asfeather asfeather-home" viewBox="0 0 24 24" id="home_icon" xmlns="http://www.w3.org/2000/svg"><path d="M3 9l9-7 9 7v11a2 2 0 01-2 2H5a2 2 0 01-2-2z"/><path d="M9 22V12h6v10"/></symbol><symbol viewBox="0 0 27 19" id="horizontal" xmlns="http://www.w3.org/2000/svg"><rect fill="#a1b5cf" width="27" height="19" rx="2" ry="2"/><rect fill="#fff" x="2" y="6" width="23" height="7" rx="2" ry="2"/></symbol><symbol fill="none" stroke-width="2" stroke-linecap="round" stroke-linejoin="round" class="aufeather aufeather-image" viewBox="0 0 24 24" id="image_icon" xmlns="http://www.w3.org/2000/svg"><rect x="3" y="3" width="18" height="18" rx="2" ry="2"/><circle cx="8.5" cy="8.5" r="1.5"/><path d="M21 15l-5-5L5 21"/></symbol><symbol fill="none" stroke-width="2" stroke-linecap="round" stroke-linejoin="round" class="avfeather avfeather-life-buoy" viewBox="0 0 24 24" id="incidents_icon" xmlns="http://www.w3.org/2000/svg"><circle cx="12" cy="12" r="10"/><circle cx="12" cy="12" r="4"/><path d="M4.93 4.93l4.24 4.24M14.83 14.83l4.24 4.24M14.83 9.17l4.24-4.24M14.83 9.17l3.53-3.53M4.93 19.07l4.24-4.24"/></symbol><symbol fill="none" stroke-width="2" stroke-linecap="round" stroke-linejoin="round" class="awfeather awfeather-key" viewBox="0 0 24 24" id="key_icon" xmlns="http://www.w3.org/2000/svg"><path d="M21 2l-2 2m-7.61 7.61a5.5 5.5 0 11-7.778 7.778 5.5 5.5 0 017.777-7.777zm0 0L15.5 7.5m0 0l3 3L22 7l-3-3m-3.5 3.5L19 4"/></symbol><symbol fill="none" stroke-width="2" stroke-linecap="round" stroke-linejoin="round" class="axfeather axfeather-link-2" viewBox="0 0 24 24" id="link_icon" xmlns="http://www.w3.org/2000/svg"><path d="M15 7h3a5 5 0 015 5 5 5 0 01-5 5h-3m-6 0H6a5 5 0 01-5-5 5 5 0 015-5h3M8 12h8"/></symbol><symbol id="list_icon" viewBox="0 0 22 21" xmlns="http://www.w3.org/2000/svg"><defs><style>.aycls-1,.aycls-2{fill:#a1b5cf}.aycls-2{fill-rule:evenodd}</style></defs><rect id="ayRounded_Rectangle_1476" data-name="Rounded Rectangle 1476" class="aycls-1" x="9" y="18" width="13" height="2" rx="1" ry="1"/><rect id="ayRounded_Rectangle_1476_copy" data-name="Rounded Rectangle 1476 copy" class="aycls-1" x="9" y="11" width="13" height="2" rx="1" ry="1"/><rect id="ayRounded_Rectangle_1476_copy_2" data-name="Rounded Rectangle 1476 copy 2" class="aycls-1" x="9" y="4" width="13" height="2" rx="1" ry="1"/><circle class="aycls-1" cx="3" cy="19" r="2"/><path class="aycls-2" d="M97.863 89.1l-3.441 4.6a.783.783 0 01-1.045.172.7.7 0 01-.29-.381l-1.017-2.04a.683.683 0 01.363-.933.773.773 0 011 .34l.515 1.033 2.69-3.595a.783.783 0 011.044-.172.673.673 0 01.181.976z" transform="translate(-92 -88)"/><path id="ayShape_2060_copy" data-name="Shape 2060 copy" class="aycls-2" d="M97.863 97.1l-3.441 4.6a.784.784 0 01-1.045.172.7.7 0 01-.29-.381l-1.017-2.04a.683.683 0 01.363-.933.773.773 0 011 .34l.515 1.033 2.69-3.595a.783.783 0 011.044-.172.673.673 0 01.181.976z" transform="translate(-92 -88)"/></symbol><symbol fill="none" stroke-width="2" stroke-linecap="round" stroke-linejoin="round" class="azfeather azfeather-map-pin" viewBox="0 0 24 24" id="location_icon" xmlns="http://www.w3.org/2000/svg"><path d="M21 10c0 7-9 13-9 13s-9-6-9-13a9 9 0 0118 0z"/><circle cx="12" cy="10" r="3"/></symbol><symbol fill="none" stroke-width="2" stroke-linecap="round" stroke-linejoin="round" class="bafeather bafeather-log-out" viewBox="0 0 24 24" id="logout_icon" xmlns="http://www.w3.org/2000/svg"><path d="M9 21H5a2 2 0 01-2-2V5a2 2 0 012-2h4M16 17l5-5-5-5M21 12H9"/></symbol><symbol viewBox="0 0 24 24" fill="none" stroke-width="2" stroke-linecap="round" stroke-linejoin="round" class="bbfeather bbfeather-mail" id="mail_icon" xmlns="http://www.w3.org/2000/svg"><path d="M4 4h16c1.1 0 2 .9 2 2v12c0 1.1-.9 2-2 2H4c-1.1 0-2-.9-2-2V6c0-1.1.9-2 2-2z"/><path d="M22 6l-10 7L2 6"/></symbol><symbol fill="none" stroke-width="2" stroke-linecap="round" stroke-linejoin="round" viewBox="0 0 24 24" id="message_icon" xmlns="http://www.w3.org/2000/svg"><path d="M21 15a2 2 0 01-2 2H7l-4 4V5a2 2 0 012-2h14a2 2 0 012 2z"/></symbol><symbol fill="none" stroke-width="2" stroke-linecap="round" stroke-linejoin="round" class="bdfeather bdfeather-minus-circle" viewBox="0 0 24 24" id="minus_circle" xmlns="http://www.w3.org/2000/svg"><circle cx="12" cy="12" r="10"/><path d="M8 12h8"/></symbol><symbol fill="none" stroke-width="2" stroke-linecap="round" stroke-linejoin="round" class="befeather befeather-moon" viewBox="0 0 24 24" id="moon_icon" xmlns="http://www.w3.org/2000/svg"><path d="M21 12.79A9 9 0 1111.21 3 7 7 0 0021 12.79z"/></symbol><symbol fill="none" stroke-width="2" stroke-linecap="round" stroke-linejoin="round" class="bffeather bffeather-play-circle" viewBox="0 0 24 24" id="play_circle" xmlns="http://www.w3.org/2000/svg"><circle cx="12" cy="12" r="10"/><path d="M10 8l6 4-6 4V8z"/></symbol><symbol viewBox="0 0 27 27" id="plus" xmlns="http://www.w3.org/2000/svg"><defs><style>.bgcls-1{fill:#fff;fill-rule:evenodd}</style></defs><path id="bgRounded_Rectangle_1472_copy" data-name="Rounded Rectangle 1472 copy" class="bgcls-1" d="M1848.5 1015a1.5 1.5 0 011.5 1.5v24a1.5 1.5 0 01-3 0v-24a1.5 1.5 0 011.5-1.5zm-12 12h24a1.5 1.5 0 010 3h-24a1.5 1.5 0 010-3z" transform="translate(-1835 -1015)"/></symbol><symbol fill="none" stroke-width="2" stroke-linecap="round" stroke-linejoin="round" class="bhfeather bhfeather-plus-circle" viewBox="0 0 24 24" id="plus_circle" xmlns="http://www.w3.org/2000/svg"><circle cx="12" cy="12" r="10"/><path d="M12 8v8M8 12h8"/></symbol><symbol viewBox="0 0 24 24" fill="none" stroke-width="2" stroke-linecap="round" stroke-linejoin="round" class="bifeather bifeather-search" id="search" xmlns="http://www.w3.org/2000/svg"><circle cx="11" cy="11" r="8"/><path d="M21 21l-4.35-4.35"/></symbol><symbol fill="none" stroke="currentColor" stroke-width="2" stroke-linecap="round" stroke-linejoin="round" viewBox="0 0 24 24" id="send_icon" xmlns="http://www.w3.org/2000/svg"><path d="M22 2L11 13M22 2l-7 20-4-9-9-4 20-7z"/></symbol><symbol viewBox="0 0 24 24" fill="none" stroke-width="2" stroke-linecap="round" stroke-linejoin="round" class="bkfeather bkfeather-settings" id="settings_icon" xmlns="http://www.w3.org/2000/svg"><circle cx="12" cy="12" r="3"/><path d="M19.4 15a1.65 1.65 0 00.33 1.82l.06.06a2 2 0 010 2.83 2 2 0 01-2.83 0l-.06-.06a1.65 1.65 0 00-1.82-.33 1.65 1.65 0 00-1 1.51V21a2 2 0 01-2 2 2 2 0 01-2-2v-.09A1.65 1.65 0 009 19.4a1.65 1.65 0 00-1.82.33l-.06.06a2 2 0 01-2.83 0 2 2 0 010-2.83l.06-.06a1.65 1.65 0 00.33-1.82 1.65 1.65 0 00-1.51-1H3a2 2 0 01-2-2 2 2 0 012-2h.09A1.65 1.65 0 004.6 9a1.65 1.65 0 00-.33-1.82l-.06-.06a2 2 0 010-2.83 2 2 0 012.83 0l.06.06a1.65 1.65 0 001.82.33H9a1.65 1.65 0 001-1.51V3a2 2 0 012-2 2 2 0 012 2v.09a1.65 1.65 0 001 1.51 1.65 1.65 0 001.82-.33l.06-.06a2 2 0 012.83 0 2 2 0 010 2.83l-.06.06a1.65 1.65 0 00-.33 1.82V9a1.65 1.65 0 001.51 1H21a2 2 0 012 2 2 2 0 01-2 2h-.09a1.65 1.65 0 00-1.51 1z"/></symbol><symbol fill="none" stroke-width="2" stroke-linecap="round" stroke-linejoin="round" class="blfeather blfeather-stop-circle" viewBox="0 0 24 24" id="stop_circle" xmlns="http://www.w3.org/2000/svg"><circle cx="12" cy="12" r="10"/><path d="M9 9h6v6H9z"/></symbol><symbol fill="none" stroke-width="2" stroke-linecap="round" stroke-linejoin="round" class="bmfeather bmfeather-git-pull-request" viewBox="0 0 24 24" id="tasks_icon" xmlns="http://www.w3.org/2000/svg"><circle cx="18" cy="18" r="3"/><circle cx="6" cy="6" r="3"/><path d="M13 6h3a2 2 0 012 2v7M6 9v12"/></symbol><symbol fill="none" stroke-width="2" stroke-linecap="round" stroke-linejoin="round" viewBox="0 0 24 24" id="time_icon" xmlns="http://www.w3.org/2000/svg"><circle cx="12" cy="12" r="10"/><path d="M12 6v6l4 2"/></symbol><symbol fill="none" stroke-width="2" stroke-linecap="round" stroke-linejoin="round" class="bofeather bofeather-tool" viewBox="0 0 24 24" id="tool_icon" xmlns="http://www.w3.org/2000/svg"><path d="M14.7 6.3a1 1 0 000 1.4l1.6 1.6a1 1 0 001.4 0l3.77-3.77a6 6 0 01-7.94 7.94l-6.91 6.91a2.12 2.12 0 01-3-3l6.91-6.91a6 6 0 017.94-7.94l-3.76 3.76z"/></symbol><symbol fill="none" stroke-width="2" stroke-linecap="round" stroke-linejoin="round" viewBox="0 0 24 24" id="trash_icon" xmlns="http://www.w3.org/2000/svg"><path d="M3 6h18M19 6v14a2 2 0 01-2 2H7a2 2 0 01-2-2V6m3 0V4a2 2 0 012-2h4a2 2 0 012 2v2M10 11v6M14 11v6"/></symbol><symbol fill="none" stroke-width="2" stroke-linecap="round" stroke-linejoin="round" class="bqfeather bqfeather-tv" viewBox="0 0 24 24" id="tv_icon" xmlns="http://www.w3.org/2000/svg"><rect x="2" y="7" width="20" height="15" rx="2" ry="2"/><path d="M17 2l-5 5-5-5"/></symbol><symbol fill="none" stroke-width="2" stroke-linecap="round" stroke-linejoin="round" class="brfeather brfeather-rotate-cw" viewBox="0 0 24 24" id="update_icon" xmlns="http://www.w3.org/2000/svg"><path d="M23 4v6h-6"/><path d="M20.49 15a9 9 0 11-2.12-9.36L23 10"/></symbol><symbol viewBox="0 0 24 24" fill="none" stroke-width="2" stroke-linecap="round" stroke-linejoin="round" class="bsfeather bsfeather-user" id="user_icon" xmlns="http://www.w3.org/2000/svg"><path d="M20 21v-2a4 4 0 00-4-4H8a4 4 0 00-4 4v2"/><circle cx="12" cy="7" r="4"/></symbol><symbol fill="none" stroke-width="2" stroke-linecap="round" stroke-linejoin="round" class="btfeather btfeather-user-plus" viewBox="0 0 24 24" id="user_plus" xmlns="http://www.w3.org/2000/svg"><path d="M16 21v-2a4 4 0 00-4-4H5a4 4 0 00-4 4v2"/><circle cx="8.5" cy="7" r="4"/><path d="M20 8v6M23 11h-6"/></symbol><symbol viewBox="0 0 27 19" id="vertical" xmlns="http://www.w3.org/2000/svg"><rect fill="#a1b5cf" width="27" height="19" rx="2" ry="2"/><rect fill="#fff" x="9" y="2" width="9" height="15" rx="2" ry="2"/></symbol><symbol fill="none" stroke-width="2" stroke-linecap="round" stroke-linejoin="round" viewBox="0 0 24 24" id="watch_icon" xmlns="http://www.w3.org/2000/svg"><circle cx="12" cy="12" r="7"/><path d="M12 9v3l1.5 1.5M16.51 17.35l-.35 3.83a2 2 0 01-2 1.82H9.83a2 2 0 01-2-1.82l-.35-3.83m.01-10.7l.35-3.83A2 2 0 019.83 1h4.35a2 2 0 012 1.82l.35 3.83"/></symbol></svg>